<?xml version="1.0" encoding="utf-8"?>
<svg viewBox="0 0 219 86" xmlns="http://www.w3.org/2000/svg">
  <g transform="matrix(0.1, 0, 0, -0.1, 0, 86)" fill="#000000" stroke="none">
    <path d="M412 743 c-61 -30 -67 -54 -67 -278 0 -174 2 -204 18 -233 47 -86 203 -74 254 20 16 29 18 59 18 228 0 173 -2 199 -18 224 -35 53 -137 73 -205 39z m118 -89 c13 -33 13 -325 0 -358 -7 -20 -16 -26 -40 -26 -46 0 -52 28 -48 223 3 179 5 187 56 187 15 0 26 -8 32 -26z" style="fill: rgb(219, 32, 44);"/>
    <path d="M190 506 c0 -261 1 -257 -52 -270 -26 -6 -28 -10 -28 -56 l0 -49 38 6 c57 8 95 34 120 83 21 42 22 55 22 287 l0 243 -50 0 -50 0 0 -244z" style="fill: rgb(219, 32, 44);"/>
    <path d="M690 477 l0 -273 103 3 c56 2 116 6 132 8 29 5 30 7 27 45 l-4 40 -79 0 -79 0 0 74 0 74 65 7 65 7 0 39 0 40 -65 -7 -65 -7 0 72 0 71 64 0 c86 0 96 5 96 46 l0 34 -130 0 -130 0 0 -273z" style="fill: rgb(219, 32, 44);"/>
    <path d="M1010 485 l0 -265 50 0 50 0 0 115 0 115 60 0 60 0 0 40 0 40 -60 0 -60 0 0 75 0 75 80 0 80 0 0 35 0 35 -130 0 -130 0 0 -265z" style="fill: rgb(219, 32, 44);"/>
    <path d="M1310 480 l0 -270 53 0 c30 0 89 -3 131 -7 l77 -6 -3 44 -3 44 -55 3 c-30 1 -65 4 -77 7 l-23 5 0 225 0 225 -50 0 -50 0 0 -270z" style="fill: rgb(219, 32, 44);"/>
    <path d="M1602 473 l3 -278 48 -3 47 -3 0 280 0 281 -50 0 -50 0 2 -277z" style="fill: rgb(219, 32, 44);"/>
    <path d="M1750 747 c0 -2 20 -59 45 -126 25 -67 45 -131 45 -141 0 -10 -22 -81 -49 -156 -28 -76 -49 -139 -48 -140 1 -1 22 -5 47 -9 l45 -6 34 110 c19 61 37 108 41 106 4 -3 23 -57 41 -120 21 -75 38 -116 48 -119 9 -2 33 -7 54 -11 37 -6 38 -5 32 17 -4 13 -27 84 -51 159 -24 75 -44 146 -44 157 0 11 20 78 45 148 25 69 45 128 45 131 0 2 -21 3 -47 1 l-47 -3 -30 -92 c-17 -51 -33 -93 -36 -93 -3 0 -19 42 -36 93 l-30 92 -52 3 c-29 2 -52 1 -52 -1z" style="fill: rgb(219, 32, 44);"/>
  </g>
</svg>